<svg width="24" height="24" viewBox="0 0 24 24" xmlns="http://www.w3.org/2000/svg">
  <path
    fill="#FFFFFF"
    d="M19.14 12.94c.04-.31.06-.63.06-.94s-.02-.63-.06-.94l2.03-1.58a.5.5 0 0 0 .12-.64l-1.92-3.32a.5.5 0 0 0-.6-.22l-2.39.96a7.03 7.03 0 0 0-1.63-.94l-.36-2.54a.5.5 0 0 0-.5-.42h-3.84a.5.5 0 0 0-.5.42l-.36 2.54c-.58.22-1.12.52-1.63.94l-2.39-.96a.5.5 0 0 0-.6.22L2.71 8.84a.5.5 0 0 0 .12.64l2.03 1.58c-.04.31-.06.63-.06.94s.02.63.06.94L2.83 14.5a.5.5 0 0 0-.12.64l1.92 3.32c.14.24.43.34.68.22l2.39-.96c.51.42 1.05.72 1.63.94l.36 2.54c.05.24.25.42.5.42h3.84c.25 0 .45-.18.5-.42l.36-2.54c.58-.22 1.12-.52 1.63-.94l2.39.96c.25.12.54.02.68-.22l1.92-3.32a.5.5 0 0 0-.12-.64l-2.03-1.56ZM12 15.5A3.5 3.5 0 1 1 12 8a3.5 3.5 0 0 1 0 7.5Z"
  />
</svg>