<svg width="24" height="24" viewBox="0 0 24 24" xmlns="http://www.w3.org/2000/svg">
  <path
    fill="#FFFFFF"
    d="M12 4C15.1 4 17.83 5.64 19.35 8.1V6.5C19.35 6.22 19.57 6 19.85 6C20.13 6 20.35 6.22 20.35 6.5V9.6C20.35 9.88 20.13 10.1 19.85 10.1H16.75C16.47 10.1 16.25 9.88 16.25 9.6C16.25 9.32 16.47 9.1 16.75 9.1H18.77C17.43 7.02 14.86 5.7 12 5.7C8.22 5.7 5.09 8.01 4.27 11.1C4.2 11.37 3.92 11.53 3.66 11.46C3.39 11.39 3.23 11.12 3.3 10.85C4.24 7.3 7.84 4 12 4Z"
  />
  <path
    fill="#FFFFFF"
    d="M20.34 12.54C20.61 12.61 20.77 12.88 20.7 13.15C19.76 16.7 16.16 20 12 20C8.9 20 6.17 18.36 4.65 15.9V17.5C4.65 17.78 4.43 18 4.15 18C3.87 18 3.65 17.78 3.65 17.5V14.4C3.65 14.12 3.87 13.9 4.15 13.9H7.25C7.53 13.9 7.75 14.12 7.75 14.4C7.75 14.68 7.53 14.9 7.25 14.9H5.23C6.57 16.98 9.14 18.3 12 18.3C15.78 18.3 18.91 15.99 19.73 12.9C19.8 12.63 20.08 12.47 20.34 12.54Z"
  />
</svg>